{"title":"Murder 3 2013 Hindi DVDRip ESubs Xvid-Team IcTv","uid":8346010,"size":736066640,"categoryP":"video","categoryS":"movies","magnet":"?xt=urn:btih:9e8501ae21f03297ab1d6c01a796653408e8d9c8&amp;dn=Murder+3+2013+Hindi+DVDRip+ESubs+Xvid-Team+IcTv&amp;tr=udp%3A%2F%2Ftracker.openbittorrent.com%3A80&amp;tr=udp%3A%2F%2Fopen.demonii.com%3A1337&amp;tr=udp%3A%2F%2Ftracker.coppersurfer.tk%3A6969&amp;tr=udp%3A%2F%2Fexodus.desync.com%3A6969","seeders":1,"leechers":0,"uploader":"HeroMaster","files":-1,"time":1365203513,"description":":::::: TEAM ICTV PRRESENTS :::::::\n\n &lt;a href=&quot;\nhttp://i.imgur.com/cONKsxt.jpg&quot; rel=&quot;nofollow&quot; target=&quot;_NEW&quot;&gt;\nhttp://i.imgur.com/cONKsxt.jpg&lt;/a&gt;\n\n\nMurder 3 2013 Hindi DVDRip ESubs Xvid-Team IcTv\n\n\nInformation:\n\n\nGenre............: Murder Mystery Drama\nYear.............: 2013\nCast.............: Randeep Hooda ,Aditi Rao Hydari\nVideo............: Xvid\nFormat...........: Avi\nAudio............: mp3\nSource...........: Team ICTV\nIMDB.............: http://www.imdb.com/title/tt2429640/\n\n\nGeneral\nComplete name : Murder 3 (2013) DVDRip - Xvid Mp3 - [1CD] - ESubs - Team IcTv Exclusive.avi\nFormat : AVI\nFormat/Info : Audio Video Interleave\nFile size : 702 MiB\nDuration : 1h 58mn\nOverall bit rate : 829 Kbps\n\nVideo\nID : 0\nFormat : MPEG-4 Visual\nFormat profile : Advanced Simple@L5\nFormat settings, BVOP : 2\nFormat settings, QPel : Yes\nFormat settings, GMC : No warppoints\nFormat settings, Matrix : Default (H.263)\nCodec ID : XVID\nCodec ID/Hint : XviD\nDuration : 1h 58mn\nBit rate : 738 Kbps\nWidth : 640 pixels\nHeight : 272 pixels\nDisplay aspect ratio : 2.35:1\nFrame rate : 29.970 fps\nColor space : YUV\nChroma subsampling : 4:2:0\nBit depth : 8 bits\nScan type : Progressive\nCompression mode : Lossy\nBits/(Pixel*Frame) : 0.141\nStream size : 624 MiB (89%)\nWriting library : XviD 1.2.1 (UTC 2008-12-04)\n\nAudio\nID : 1\nFormat : MPEG Audio\nFormat version : Version 1\nFormat profile : Layer 3\nMode : Joint stereo\nCodec ID : 55\nCodec ID/Hint : MP3\nDuration : 1h 58mn\nBit rate mode : Constant\nBit rate : 80.0 Kbps\nChannel(s) : 2 channels\nSampling rate : 32.0 KHz\nCompression mode : Lossy\nStream size : 67.7 MiB (10%)\nAlignment : Aligned on interleaves\nInterleave, duration : 36 ms (1.08 video frame)\n\n\nAll Credit Goes To Intellect Clever &amp; Team IcTv\n\n\nPoster:\n\n &lt;a href=&quot;\nhttp://i.imgur.com/UdmnfVj.jpg&quot; rel=&quot;nofollow&quot; target=&quot;_NEW&quot;&gt;\nhttp://i.imgur.com/UdmnfVj.jpg&lt;/a&gt;\n\n\nScreenshots:\n\n &lt;a href=&quot;\nhttp://i.imgur.com/n2bOFrh.jpg&quot; rel=&quot;nofollow&quot; target=&quot;_NEW&quot;&gt;\nhttp://i.imgur.com/n2bOFrh.jpg&lt;/a&gt;\n\n &lt;a href=&quot;\nhttp://i.imgur.com/erlCZ35.jpg&quot; rel=&quot;nofollow&quot; target=&quot;_NEW&quot;&gt;\nhttp://i.imgur.com/erlCZ35.jpg&lt;/a&gt;\n\n &lt;a href=&quot;\nhttp://i.imgur.com/9KOFQLe.jpg&quot; rel=&quot;nofollow&quot; target=&quot;_NEW&quot;&gt;\nhttp://i.imgur.com/9KOFQLe.jpg&lt;/a&gt;\n\n\nSEED AND ENJOY!","torrent":{"xt":"urn:btih:9e8501ae21f03297ab1d6c01a796653408e8d9c8","amp;dn":"Murder+3+2013+Hindi+DVDRip+ESubs+Xvid-Team+IcTv","amp;tr":["udp%3A%2F%2Ftracker.openbittorrent.com%3A80","udp%3A%2F%2Fopen.demonii.com%3A1337","udp%3A%2F%2Ftracker.coppersurfer.tk%3A6969","udp%3A%2F%2Fexodus.desync.com%3A6969"],"infoHash":"9e8501ae21f03297ab1d6c01a796653408e8d9c8","infoHashBuffer":{"type":"Buffer","data":[158,133,1,174,33,240,50,151,171,29,108,1,167,150,101,52,8,232,217,200]},"announce":[],"urlList":[]}}